<mxfile host="app.diagrams.net" modified="2024-07-12T13:03:03.952Z" agent="Mozilla/5.0 (Macintosh; Intel Mac OS X 10_15_7) AppleWebKit/537.36 (KHTML, like Gecko) Chrome/126.0.0.0 Safari/537.36 Edg/126.0.0.0" version="24.6.5" etag="qsTD0p4SyTJVaKdNcGlG" type="github">
  <diagram name="第 1 页" id="Ov5pVJ0Qa0qto5RODM2Z">
    <mxGraphModel>
      <root>
        <mxCell id="0" />
        <mxCell id="1" parent="0" />
      </root>
    </mxGraphModel>
  </diagram>
</mxfile>
